<svg xmlns="http://www.w3.org/2000/svg" width="400" height="208" class="svgbob"><style>.svgbob line, .svgbob path, .svgbob circle, .svgbob rect, .svgbob polygon {
    stroke: black;
    stroke-width: 2;
    stroke-opacity: 1;
    fill-opacity: 1;
    stroke-linecap: round;
    stroke-linejoin: miter;
}
.svgbob text {
    white-space: pre;
    fill: black;
    font-family: Iosevka Fixed, monospace;
    font-size: 14px;
}
.svgbob rect.backdrop {
    stroke: none;
    fill: white;
}
.svgbob .broken {
    stroke-dasharray: 8;
}
.svgbob .filled {
    fill: black;
}
.svgbob .bg_filled {
    fill: white;
    stroke-width: 1;
}
.svgbob .nofill {
    fill: white;
}
.svgbob .end_marked_arrow {
    marker-end: url(#arrow);
}
.svgbob .start_marked_arrow {
    marker-start: url(#arrow);
}
.svgbob .end_marked_diamond {
    marker-end: url(#diamond);
}
.svgbob .start_marked_diamond {
    marker-start: url(#diamond);
}
.svgbob .end_marked_circle {
    marker-end: url(#circle);
}
.svgbob .start_marked_circle {
    marker-start: url(#circle);
}
.svgbob .end_marked_open_circle {
    marker-end: url(#open_circle);
}
.svgbob .start_marked_open_circle {
    marker-start: url(#open_circle);
}
.svgbob .end_marked_big_open_circle {
    marker-end: url(#big_open_circle);
}
.svgbob .start_marked_big_open_circle {
    marker-start: url(#big_open_circle);
}<!--separator--></style><defs><marker id="arrow" viewBox="-2 -2 8 8" refX="4" refY="2" markerWidth="7" markerHeight="7" orient="auto-start-reverse"><polygon points="0,0 0,4 4,2 0,0"></polygon></marker><marker id="diamond" viewBox="-2 -2 8 8" refX="4" refY="2" markerWidth="7" markerHeight="7" orient="auto-start-reverse"><polygon points="0,2 2,0 4,2 2,4 0,2"></polygon></marker><marker id="circle" viewBox="0 0 8 8" refX="4" refY="4" markerWidth="7" markerHeight="7" orient="auto-start-reverse"><circle cx="4" cy="4" r="2" class="filled"></circle></marker><marker id="open_circle" viewBox="0 0 8 8" refX="4" refY="4" markerWidth="7" markerHeight="7" orient="auto-start-reverse"><circle cx="4" cy="4" r="2" class="bg_filled"></circle></marker><marker id="big_open_circle" viewBox="0 0 8 8" refX="4" refY="4" markerWidth="7" markerHeight="7" orient="auto-start-reverse"><circle cx="4" cy="4" r="3" class="bg_filled"></circle></marker></defs><rect class="backdrop" x="0" y="0" width="400" height="208"></rect><text x="26" y="12" >0</text><text x="42" y="12" >1</text><text x="58" y="12" >2</text><text x="74" y="12" >3</text><text x="90" y="12" >4</text><text x="106" y="12" >5</text><text x="122" y="12" >6</text><text x="138" y="12" >7</text><text x="10" y="44" >0</text><text x="10" y="60" >1</text><text x="10" y="76" >2</text><text x="10" y="92" >3</text><text x="10" y="108" >4</text><text x="10" y="124" >5</text><text x="10" y="140" >6</text><text x="10" y="156" >7</text><text x="10" y="172" >8</text><text x="10" y="188" >9</text><text x="266" y="12" >0</text><text x="282" y="12" >1</text><text x="298" y="12" >2</text><text x="314" y="12" >3</text><text x="330" y="12" >4</text><text x="346" y="12" >5</text><text x="362" y="12" >6</text><text x="378" y="12" >7</text><text x="250" y="44" >0</text><text x="250" y="60" >1</text><text x="250" y="76" >2</text><text x="250" y="92" >3</text><text x="250" y="108" >4</text><text x="250" y="124" >5</text><text x="250" y="140" >6</text><text x="250" y="156" >7</text><text x="250" y="172" >8</text><text x="250" y="188" >9</text><text x="194" y="108" >1</text><polygon points="224,100 232,104 224,108" class="filled"></polygon><g><line x1="20" y1="24" x2="148" y2="24" class="solid"></line><line x1="20" y1="24" x2="20" y2="184" class="solid"></line><line x1="36" y1="24" x2="36" y2="184" class="solid"></line><line x1="52" y1="24" x2="52" y2="184" class="solid"></line><line x1="68" y1="24" x2="68" y2="184" class="solid"></line><line x1="84" y1="24" x2="84" y2="184" class="solid"></line><line x1="100" y1="24" x2="100" y2="184" class="solid"></line><line x1="116" y1="24" x2="116" y2="184" class="solid"></line><line x1="132" y1="24" x2="132" y2="184" class="solid"></line><line x1="148" y1="24" x2="148" y2="184" class="solid"></line><line x1="20" y1="40" x2="148" y2="40" class="solid"></line><line x1="20" y1="56" x2="148" y2="56" class="solid"></line><line x1="20" y1="72" x2="148" y2="72" class="solid"></line><line x1="20" y1="88" x2="148" y2="88" class="solid"></line><line x1="20" y1="104" x2="148" y2="104" class="solid"></line><line x1="20" y1="120" x2="148" y2="120" class="solid"></line><line x1="20" y1="136" x2="148" y2="136" class="solid"></line><line x1="20" y1="152" x2="148" y2="152" class="solid"></line><line x1="20" y1="168" x2="148" y2="168" class="solid"></line><line x1="20" y1="184" x2="148" y2="184" class="solid"></line></g><g><line x1="260" y1="24" x2="388" y2="24" class="solid"></line><line x1="260" y1="24" x2="260" y2="184" class="solid"></line><line x1="276" y1="24" x2="276" y2="184" class="solid"></line><line x1="292" y1="24" x2="292" y2="184" class="solid"></line><line x1="308" y1="24" x2="308" y2="184" class="solid"></line><line x1="324" y1="24" x2="324" y2="184" class="solid"></line><line x1="340" y1="24" x2="340" y2="184" class="solid"></line><line x1="356" y1="24" x2="356" y2="184" class="solid"></line><line x1="372" y1="24" x2="372" y2="184" class="solid"></line><line x1="388" y1="24" x2="388" y2="184" class="solid"></line><line x1="260" y1="40" x2="388" y2="40" class="solid"></line><line x1="260" y1="56" x2="388" y2="56" class="solid"></line><line x1="260" y1="72" x2="388" y2="72" class="solid"></line><line x1="260" y1="88" x2="388" y2="88" class="solid"></line><line x1="260" y1="104" x2="388" y2="104" class="solid"></line><line x1="260" y1="120" x2="388" y2="120" class="solid"></line><line x1="260" y1="136" x2="388" y2="136" class="solid"></line><line x1="260" y1="152" x2="388" y2="152" class="solid"></line><line x1="260" y1="168" x2="388" y2="168" class="solid"></line><line x1="260" y1="184" x2="388" y2="184" class="solid"></line></g><g><path d="M 184,88 A 4,4 0,0,0 180,92" class="nofill"></path><line x1="180" y1="92" x2="180" y2="116" class="solid"></line><line x1="184" y1="88" x2="208" y2="88" class="solid"></line><path d="M 208,88 A 4,4 0,0,1 212,92" class="nofill"></path><line x1="212" y1="92" x2="212" y2="116" class="solid"></line><line x1="168" y1="104" x2="180" y2="104" class="solid"></line><line x1="212" y1="104" x2="224" y2="104" class="solid"></line><path d="M 180,116 A 4,4 0,0,0 184,120" class="nofill"></path><line x1="184" y1="120" x2="208" y2="120" class="solid"></line><path d="M 212,116 A 4,4 0,0,1 208,120" class="nofill"></path></g></svg>