<svg xmlns="http://www.w3.org/2000/svg" width="1216" height="288" class="svgbob"><style>.svgbob line, .svgbob path, .svgbob circle, .svgbob rect, .svgbob polygon {
    stroke: black;
    stroke-width: 2;
    stroke-opacity: 1;
    fill-opacity: 1;
    stroke-linecap: round;
    stroke-linejoin: miter;
}
.svgbob text {
    white-space: pre;
    fill: black;
    font-family: Iosevka Fixed, monospace;
    font-size: 14px;
}
.svgbob rect.backdrop {
    stroke: none;
    fill: white;
}
.svgbob .broken {
    stroke-dasharray: 8;
}
.svgbob .filled {
    fill: black;
}
.svgbob .bg_filled {
    fill: white;
    stroke-width: 1;
}
.svgbob .nofill {
    fill: white;
}
.svgbob .end_marked_arrow {
    marker-end: url(#arrow);
}
.svgbob .start_marked_arrow {
    marker-start: url(#arrow);
}
.svgbob .end_marked_diamond {
    marker-end: url(#diamond);
}
.svgbob .start_marked_diamond {
    marker-start: url(#diamond);
}
.svgbob .end_marked_circle {
    marker-end: url(#circle);
}
.svgbob .start_marked_circle {
    marker-start: url(#circle);
}
.svgbob .end_marked_open_circle {
    marker-end: url(#open_circle);
}
.svgbob .start_marked_open_circle {
    marker-start: url(#open_circle);
}
.svgbob .end_marked_big_open_circle {
    marker-end: url(#big_open_circle);
}
.svgbob .start_marked_big_open_circle {
    marker-start: url(#big_open_circle);
}<!--separator--></style><defs><marker id="arrow" viewBox="-2 -2 8 8" refX="4" refY="2" markerWidth="7" markerHeight="7" orient="auto-start-reverse"><polygon points="0,0 0,4 4,2 0,0"></polygon></marker><marker id="diamond" viewBox="-2 -2 8 8" refX="4" refY="2" markerWidth="7" markerHeight="7" orient="auto-start-reverse"><polygon points="0,2 2,0 4,2 2,4 0,2"></polygon></marker><marker id="circle" viewBox="0 0 8 8" refX="4" refY="4" markerWidth="7" markerHeight="7" orient="auto-start-reverse"><circle cx="4" cy="4" r="2" class="filled"></circle></marker><marker id="open_circle" viewBox="0 0 8 8" refX="4" refY="4" markerWidth="7" markerHeight="7" orient="auto-start-reverse"><circle cx="4" cy="4" r="2" class="bg_filled"></circle></marker><marker id="big_open_circle" viewBox="0 0 8 8" refX="4" refY="4" markerWidth="7" markerHeight="7" orient="auto-start-reverse"><circle cx="4" cy="4" r="3" class="bg_filled"></circle></marker></defs><rect class="backdrop" x="0" y="0" width="1216" height="288"></rect><text x="2" y="12" >Rappresentazione</text><text x="138" y="12" >ad</text><text x="162" y="12" >alto</text><text x="202" y="12" >livello</text><line x1="396" y1="0" x2="396" y2="272" class="solid"></line><text x="402" y="12" >Rappresentazione</text><text x="538" y="12" >in</text><text x="562" y="12" >memoria</text><text x="90" y="44" >0</text><text x="138" y="44" >1</text><text x="186" y="44" >2</text><text x="234" y="44" >3</text><text x="274" y="44" >...</text><text x="322" y="44" >127</text><rect x="216" y="128" width="8" height="16" class="solid filled" rx="0"></rect><rect x="224" y="128" width="8" height="16" class="solid filled" rx="0"></rect><rect x="232" y="128" width="8" height="16" class="solid filled" rx="0"></rect><rect x="240" y="128" width="8" height="16" class="solid filled" rx="0"></rect><rect x="248" y="128" width="8" height="16" class="solid filled" rx="0"></rect><text x="458" y="44" >0</text><text x="498" y="44" >...</text><text x="554" y="44" >7</text><text x="674" y="44" >0</text><text x="722" y="44" >1</text><text x="770" y="44" >2</text><text x="818" y="44" >3</text><text x="858" y="44" >...</text><text x="914" y="44" >7</text><rect x="800" y="64" width="8" height="16" class="solid filled" rx="0"></rect><rect x="808" y="64" width="8" height="16" class="solid filled" rx="0"></rect><rect x="816" y="64" width="8" height="16" class="solid filled" rx="0"></rect><rect x="824" y="64" width="8" height="16" class="solid filled" rx="0"></rect><rect x="832" y="64" width="8" height="16" class="solid filled" rx="0"></rect><polygon points="504,108 508,96 512,108" class="filled"></polygon><line x1="508" y1="108" x2="508" y2="144" class="solid"></line><polygon points="792,108 796,96 800,108" class="filled"></polygon><line x1="796" y1="108" x2="796" y2="144" class="solid"></line><text x="506" y="204" >0</text><text x="546" y="204" >...</text><text x="594" y="204" >15</text><text x="642" y="204" >16</text><text x="690" y="204" >...</text><text x="738" y="204" >31</text><text x="786" y="204" >32</text><text x="834" y="204" >...</text><text x="882" y="204" >63</text><text x="930" y="204" >...</text><text x="978" y="204" >1023</text><text x="34" y="76" >0</text><text x="1034" y="76" >Ogni</text><text x="1074" y="76" >casella</text><text x="1138" y="76" >è</text><text x="1154" y="76" >un</text><text x="1178" y="76" >bit</text><text x="34" y="108" >1</text><text x="34" y="140" >2</text><text x="26" y="172" >...</text><text x="1034" y="172" >Ogni</text><text x="1074" y="172" >casella</text><text x="1138" y="172" >è</text><text x="1154" y="172" >un</text><text x="1178" y="172" >byte</text><text x="26" y="204" >63</text><text x="538" y="268" >row</text><text x="570" y="268" >0</text><text x="674" y="268" >row</text><text x="706" y="268" >1</text><text x="810" y="268" >row</text><text x="842" y="268" >2</text><g><line x1="68" y1="56" x2="356" y2="56" class="solid"></line><line x1="68" y1="56" x2="68" y2="216" class="solid"></line><line x1="116" y1="56" x2="116" y2="216" class="solid"></line><line x1="164" y1="56" x2="164" y2="216" class="solid"></line><line x1="212" y1="56" x2="212" y2="216" class="solid"></line><line x1="260" y1="56" x2="260" y2="216" class="solid"></line><line x1="308" y1="56" x2="308" y2="216" class="solid"></line><line x1="356" y1="56" x2="356" y2="216" class="solid"></line><line x1="68" y1="88" x2="356" y2="88" class="solid"></line><line x1="68" y1="120" x2="356" y2="120" class="solid"></line><line x1="68" y1="152" x2="356" y2="152" class="solid"></line><line x1="68" y1="184" x2="356" y2="184" class="solid"></line><line x1="68" y1="216" x2="356" y2="216" class="solid"></line></g><g><line x1="436" y1="56" x2="580" y2="56" class="solid"></line><line x1="436" y1="56" x2="436" y2="88" class="solid"></line><line x1="484" y1="56" x2="484" y2="88" class="solid"></line><line x1="532" y1="56" x2="532" y2="88" class="solid"></line><line x1="580" y1="56" x2="580" y2="88" class="solid"></line><line x1="436" y1="88" x2="580" y2="88" class="solid"></line></g><g><line x1="652" y1="56" x2="940" y2="56" class="solid"></line><line x1="652" y1="56" x2="652" y2="88" class="solid"></line><line x1="700" y1="56" x2="700" y2="88" class="solid"></line><line x1="748" y1="56" x2="748" y2="88" class="solid"></line><line x1="796" y1="56" x2="796" y2="88" class="solid"></line><line x1="844" y1="56" x2="844" y2="88" class="solid"></line><line x1="892" y1="56" x2="892" y2="88" class="solid"></line><line x1="940" y1="56" x2="940" y2="88" class="solid"></line><line x1="652" y1="88" x2="940" y2="88" class="solid"></line></g><g><line x1="484" y1="152" x2="1012" y2="152" class="solid"></line><line x1="484" y1="152" x2="484" y2="184" class="solid"></line><line x1="532" y1="152" x2="532" y2="184" class="solid"></line><line x1="580" y1="152" x2="580" y2="184" class="solid"></line><line x1="628" y1="152" x2="628" y2="184" class="solid"></line><line x1="676" y1="152" x2="676" y2="184" class="solid"></line><line x1="724" y1="152" x2="724" y2="184" class="solid"></line><line x1="772" y1="152" x2="772" y2="184" class="solid"></line><line x1="820" y1="152" x2="820" y2="184" class="solid"></line><line x1="868" y1="152" x2="868" y2="184" class="solid"></line><line x1="916" y1="152" x2="916" y2="184" class="solid"></line><line x1="964" y1="152" x2="964" y2="184" class="solid"></line><line x1="1012" y1="152" x2="1012" y2="184" class="solid"></line><line x1="484" y1="184" x2="1012" y2="184" class="solid"></line></g><g><line x1="484" y1="224" x2="484" y2="248" class="solid"></line><line x1="628" y1="224" x2="628" y2="248" class="solid"></line><line x1="772" y1="224" x2="772" y2="248" class="solid"></line><line x1="916" y1="224" x2="916" y2="248" class="solid"></line><line x1="484" y1="248" x2="916" y2="248" class="solid"></line></g></svg>